<?xml version="1.0" standalone="no"?>
<!DOCTYPE svg PUBLIC "-//W3C//DTD SVG 20010904//EN"
 "http://www.w3.org/TR/2001/REC-SVG-20010904/DTD/svg10.dtd">
<svg version="1.0" xmlns="http://www.w3.org/2000/svg"
 width="700.000000pt" height="700.000000pt" viewBox="0 0 700.000000 700.000000"
 preserveAspectRatio="xMidYMid meet">
<metadata>
Created by potrace 1.11, written by Peter Selinger 2001-2013
</metadata>
<g transform="translate(0.000000,700.000000) scale(0.100000,-0.100000)"
fill="#000000" stroke="none">
<path d="M3962 6308 c-7 -7 -12 -16 -12 -20 0 -13 -101 -214 -150 -298 -148
-255 -298 -448 -520 -671 -145 -146 -228 -220 -357 -318 -49 -38 -80 -68 -76
-75 3 -6 56 -83 116 -172 l110 -161 74 50 c40 28 95 69 121 91 27 23 73 61
103 86 69 57 295 283 378 378 35 39 66 72 70 72 3 0 32 -41 65 -91 72 -112
163 -235 229 -313 44 -50 48 -59 34 -67 -9 -5 -37 -25 -62 -45 -26 -19 -58
-40 -71 -46 -13 -6 -24 -15 -24 -20 0 -4 -4 -8 -9 -8 -5 0 -40 -19 -77 -42
-221 -135 -644 -321 -951 -419 -40 -12 -77 -25 -83 -29 -15 -9 135 -406 152
-402 7 2 78 29 158 59 478 183 887 399 1183 625 l78 59 67 -54 c274 -223 728
-422 1253 -548 41 -10 86 -20 100 -22 13 -3 36 -8 50 -12 24 -6 27 -3 34 32 5
21 9 43 11 48 1 6 21 83 43 172 23 89 41 164 41 166 0 4 -32 14 -72 22 -32 7
-233 57 -263 66 -16 5 -100 29 -185 54 -349 100 -605 209 -728 307 l-53 43
118 115 c115 113 213 215 283 296 41 47 59 70 163 199 4 6 37 53 72 105 55 80
72 97 108 110 79 29 68 44 -176 249 l-99 82 -41 -43 -42 -42 -477 -1 c-263 0
-478 2 -478 5 0 3 25 60 57 127 51 106 62 123 94 138 47 22 93 65 82 76 -8 8
-399 99 -422 99 -4 0 -12 -5 -19 -12z m930 -788 c-3 -14 -40 -61 -142 -180
-74 -88 -274 -290 -286 -290 -12 0 -146 137 -201 205 -81 101 -172 263 -154
275 5 3 184 5 398 4 318 -1 387 -3 385 -14z"/>
<path d="M1790 4390 l0 -1699 -137 2 -138 2 0 1183 -1 1183 33 25 c39 30 43
66 11 88 -18 13 -57 16 -215 16 l-193 0 0 -1623 0 -1622 178 0 c131 0 178 3
182 12 3 7 5 98 4 203 l-1 190 449 0 448 0 0 -63 0 -64 180 -1 c163 -1 180 1
181 16 1 9 2 654 3 1433 1 1291 2 1419 17 1435 49 56 45 90 -9 100 -29 6 -276
9 -354 5 -17 -1 -18 -68 -18 -1261 l0 -1259 -127 2 -128 2 -1 1630 0 1630 33
44 c38 50 39 54 17 75 -13 14 -47 16 -215 16 l-199 0 0 -1700z"/>
<path d="M4229 4100 l-24 -5 0 -180 c1 -99 0 -184 -2 -190 -2 -7 -174 -10
-491 -9 l-488 2 -2 -172 -1 -171 492 0 492 0 1 -140 c0 -77 -3 -144 -7 -150
-5 -6 -168 -10 -458 -9 -248 1 -451 -2 -452 -5 -7 -46 -2 -331 6 -332 6 -1
213 -2 460 -3 l450 -1 0 -170 0 -170 -585 -2 c-322 0 -591 -2 -597 -2 -10 -1
-13 -42 -13 -171 l0 -170 598 0 597 0 0 -340 0 -339 203 -3 c112 -2 209 0 214
3 7 4 10 126 10 343 l-1 336 600 0 599 0 0 173 0 172 -600 -1 -600 0 2 170 3
171 445 1 c245 1 451 2 458 3 9 1 12 42 12 170 l0 168 -447 1 c-247 0 -454 1
-461 1 -10 1 -12 34 -10 149 l3 147 480 0 c264 1 485 4 490 7 8 5 13 290 6
329 0 4 -211 7 -468 7 -258 0 -478 1 -490 1 -23 1 -23 3 -23 130 0 127 0 129
25 145 14 10 31 28 37 41 15 34 -3 52 -60 61 -55 8 -367 11 -403 4z"/>
</g>
</svg>
